<?xml version="1.0" encoding="UTF-8" standalone="no"?>
<svg
   xmlns:dc="http://purl.org/dc/elements/1.1/"
   xmlns:cc="http://creativecommons.org/ns#"
   xmlns:rdf="http://www.w3.org/1999/02/22-rdf-syntax-ns#"
   xmlns:svg="http://www.w3.org/2000/svg"
   xmlns="http://www.w3.org/2000/svg"
   xmlns:sodipodi="http://sodipodi.sourceforge.net/DTD/sodipodi-0.dtd"
   xmlns:inkscape="http://www.inkscape.org/namespaces/inkscape"
   width="470"
   height="480"
   version="1.1"
   id="svg38"
   sodipodi:docname="logo_container.svg"
   inkscape:version="0.92.4 (5da689c313, 2019-01-14)">
  <metadata
     id="metadata42">
    <rdf:RDF>
      <cc:Work
         rdf:about="">
        <dc:format>image/svg+xml</dc:format>
        <dc:type
           rdf:resource="http://purl.org/dc/dcmitype/StillImage" />
        <dc:title></dc:title>
      </cc:Work>
    </rdf:RDF>
  </metadata>
  <sodipodi:namedview
     pagecolor="#ffffff"
     bordercolor="#666666"
     borderopacity="1"
     objecttolerance="10"
     gridtolerance="10"
     guidetolerance="10"
     inkscape:pageopacity="0"
     inkscape:pageshadow="2"
     inkscape:window-width="640"
     inkscape:window-height="480"
     id="namedview40"
     showgrid="false"
     inkscape:zoom="0.49166667"
     inkscape:cx="235"
     inkscape:cy="240"
     inkscape:window-x="0"
     inkscape:window-y="27"
     inkscape:window-maximized="0"
     inkscape:current-layer="svg38" />
  <defs
     id="SvgjsDefs6783" />
  <g
     id="SvgjsG6784"
     featurekey="root"
     fill="#4e4b4b" />
  <g
     id="SvgjsG6785"
     featurekey="container1"
     fill="#f0e8c0"
     transform="matrix(4.606525897979736,0,0,4.606525897979736,-0.21341548520274606,-0.9213051555960765)">
    <g
       fill=""
       id="g14">
      <path
         d="M59.6 103.3h-.4c0 .2-.2.2-.5.2s-.2.1 0 .2h.3l.8-.2c.1-.1.1-.2.1-.3zm-25.9.2h-.1c-.3 0-.7 0-.7.2l-.2.3h.5l.6-.5zm45.9.1zm.1-.4h-.5l-.4.2c-.1.1.2.1.3.2s.3.1.5 0 .1-.3.1-.4zm-24 .4l.7.2h.4l-.4-.4h-1zm.7-.3zm.4.4zm7.3.2l.8.3h.4v-.2H65a2 2 0 0 1-.9-.1zm-40.2-.8c0 .2 0 .3.5.3h.6v-.1zm3.6.1h-.8v.1a.9.9 0 0 0 .9 0h-.1zm-5 .2l-.2.3h.5c.2 0 .1-.1.1-.2zm8.5.1h-.7a1.8 1.8 0 0 0 .9-.1H31zm51.2.9h.4c-.3-.2-.4-.2-.4 0zm17.8-.6zm-67.7-.6zm53.4.8h.2c.1 0 .3-.1.2-.1h-.4zm-65.7-.6zm46.3-.2z"
         id="path4" />
      <path
         d="M64.1 103.9h.1v.1h.1v-.1h-.2zm-7.1-.1zm-.2-.1zm26.1 0h.1v-.1l-.1.1zm-61.1-.2h.1l-.1-.1v.1zm78.7-.3h.1-.2.1zm-18.6 0h.1l-.1-.1v.1zm-36.8 0H45h.1zM.5 79.9zm23.3 23.2zm-.2 0zm37.3-.1zm-41.9.2h.1-.1zM.3 84.1zm.1-.3zm-.2.5c0 .1 0 .2.1.2v-.3s-.1 0-.1.1zm0 .2zm69.1 19zm10.4.1zm-.1 0zm8.2.2zm-34.8.3zm7.1.1H60h.1zm41.4-70.7h-.1.1z"
         id="path6" />
      <path
         d="M102 12.7a3.4 3.4 0 0 0 0-1.3h-.2a.2.2 0 0 0-.3.1v-.2l.2.2-.3-1.9V4h.2l.2.2v-.5l.2-.6a1 1 0 0 0-.1-.7l-.3-.7h-.3a.7.7 0 0 1-.7 0h-.6c.2.2 0 .3-.3.4h-1.5l-.7-.1.4-.2.3-.2h-2.4c.2.3-.1.5-.1.8h-2.9c0-.1-.1-.2-.4-.2H92c.2.1-.1.2-.1.4h-1.3l.4-.2c.5-.1.5-.3.5-.5l-.3-.2h-.5l-.5.2A2.4 2.4 0 0 1 89 2l.3.3c-.4 0-.4 0-.3-.2a.2.2 0 0 0 0-.1h.4c.1 0 0-.1 0-.1h-.8a2.9 2.9 0 0 0-1.3 0h-1.2l-.2.2h-1l-.5.2.2.3H84c-.4-.1-.5-.3-.4-.5s-.2-.3-.3-.4a3.1 3.1 0 0 0-1.5.1H81l-.2.2a2.1 2.1 0 0 1-1.2-.3h-.2l-1.1-.2h-.5c-.2.1-.4.2-.4.3a3.6 3.6 0 0 1 .1.5c0 .1-.1.2-.3.2h-.7l-.4-.2h.5c.2 0 .2-.1.2-.2h-1.4c-.2 0-.3-.1-.3-.2s.2-.2 0-.3h-3.2l-.6.2H71a1.3 1.3 0 0 0-1.2-.1l-1 .2a.9.9 0 0 1-.7-.1h-.2a4.9 4.9 0 0 0-1.5-.1h-1.6c-.1.2-.4.3-.9.3s-.2-.2-.5-.3l-.9-.2h-1.1a3.6 3.6 0 0 1-1.6-.5h-.5a12.4 12.4 0 0 0-2.2.2h-.3a.8.8 0 0 0-.7.1c-.2.1-.5.3-.5.4h-.4a1.4 1.4 0 0 0-.8 0l-.5.2h-.6c0-.1.2-.2.1-.3H53l-1.3.2c-.7.2-.7.2-.9-.1s-.2-.2-.4-.2h-.5a3 3 0 0 1-1.3-.5.6.6 0 0 0-.6 0h-.5l-.6-.1a5.2 5.2 0 0 0-1-.4h-1.7l-.7.2h-1.6l-.2.1a6.8 6.8 0 0 0-2.5-.1V1c-.1.1-.4.2-.6.1l-.7-.3h-2a6 6 0 0 0-1.5.1h-1c-.1.1-.3.2-.2.4s0 .2-.2.2 0 .2-.1.2a2.5 2.5 0 0 1 1.4.4l-.4.4h-2.2l.9-.2c.3-.1.4-.3.4-.4h-.6L31 1.7c0-.2-.6-.2-.5-.4s.7 0 .9-.2l-2-.4h-4.8v.1s-.2.3-.2.5-.1.2-.5.2h-.2c-.1.2-.2.3-.6.3h-4.2v-.2l.3-.2h.6a7.1 7.1 0 0 1-2-.4h.4a.1.1 0 0 0 0-.1h-.8l-1.2.2H16c.1-.1 0-.2-.2-.2H15l-.5.2c-.1.2-.5.4-.5.6s-.2.3-.4.5l-.8-.3h-.7c-.3-.1-.2-.2.2-.3s.3-.1.2-.2l-.1-.6a1 1 0 0 0-.9-.1H11l-.3-.1H9.5c-.1.2-.4.2-.7.3h-.4L7 .7a1.9 1.9 0 0 0-.6.5s0 .1.1.1h1c.1.2.1.2-.2.3l-.8.3H7c-.3.1-.6.3-.6.5H3v.9l-.2.2v1.1c0 .2-.1.4-.2.3h-.4a1.7 1.7 0 0 1 0 .3c0 .1 0 .2-.1.1a.3.3 0 0 1 0-.3h.1v-.4a1.1 1.1 0 0 0 0-.3l-.5.4a1.3 1.3 0 0 0 0 .8c.2.5.5.8.8.5h.1c.2-.2.3-.2.5.1H3v1.3l-.3-.3-.5.8v.7a.6.6 0 0 0 .1.3c.3.1.4.6.7.9-.1.2-.2.2-.2.3s-.1.1-.1.3a5.9 5.9 0 0 0 0 1 2.7 2.7 0 0 1 0 .9 7.8 7.8 0 0 0 .1 1.2H3V15h-.1v.3H3v4.5h-.1l-.3-.4v-.2a.5.5 0 0 1 0-.4.5.5 0 0 0 .2-.5c0-.3 0-.6-.2-.7h-.2c-.3 0-.5-.4-.6-.9a1.5 1.5 0 0 1 0-.9v-.3c-.1-.4-.4-.5-.5-.9s-.2-.3-.4-.2a.7.7 0 0 0-.1.7 1.6 1.6 0 0 1 0 .9v.2H1v-.4c.1-.2.2-.3.2-.2a1.8 1.8 0 0 1 .1 1.5 7 7 0 0 0-.3 1.3h.3c.2.4.4.2.6-.1 0 .4-.2.7-.2 1.2s-.1.5-.3.6l-.5.2c0-.1 0-.3.1-.3a.8.8 0 0 0-.1.5c0 .2.1.5.2.5h.3c.1 0 .1.1.1.3s0 .3.1.4.3.5.3 1a1.3 1.3 0 0 0 0 .3 3 3 0 0 1 .2.9h.3l.2.3c.1.1.2.1.3.3l-.2.7h-.2l-.2-.2-.3.4c-.1.2 0 .4 0 .6v.3h-.1a.3.3 0 0 0-.1.3l.2.3h.1l.3-.5a.7.7 0 0 0 0-.6c0-.1 0-.2.1-.2h.3c.1 0 .1.3.1.6v.8l.3.3H3v.9c-.1-.2-.2-.2-.3-.1l-.2.3c0-.1-.1 0-.1.1a.9.9 0 0 0 0 .5.6.6 0 0 1 .1.4c-.1.9 0 1.3-.5 1h-.1v.2a2 2 0 0 0 0 .8v.2l.4-.2a.6.6 0 0 0 .4-.4c.1-.2.3-.2.4-.4H3V33a4.6 4.6 0 0 0 0 .5c-.1 0-.1.1-.1.3s0 .3.1.3v4l-.4.2v.8c.1.3.2.5.4.4v4h-.2v.3a2.5 2.5 0 0 1 0 1.7c0 .1-.1.1-.2 0s0-.4-.1-.6h-.2c-.1.4.1.9-.1 1.2a1.3 1.3 0 0 0 0 .2 5.2 5.2 0 0 1 0 1.8.6.6 0 0 0 0 .3c.2.2.1.6.2.9.1 0 .1 0 .1-.2v-.5h.2a1.3 1.3 0 0 1 .1.6v.2H3v1h-.2l-.4 1.2.5-.2H3v.9c-.1-.1-.1.1-.1.3v.4c-.2-.3-.4-.5-.6-.4H2v-.5h.2c.1 0 .1-.2.2-.4l-.5-.7h-.5l-.5.3H.8c-.1-.2 0-.3.1-.4v-.2H1c.1.1.2 0 .3-.1a.3.3 0 0 0 .1-.3v-.2H.9v.2c-.2.1-.3.4-.4.7a1.6 1.6 0 0 0 0 .5c0 .3.1.5.1.8 0 .1.1.3.1.3l.9.3h.1c.2.5.4.7.6 1.2s.3.4.4.1.2-.4.4-.2v.7a3.6 3.6 0 0 1-.2.8 1.3 1.3 0 0 0 .1 1v5.9h-.1c-.3-.4-.3-.4-.4 0s-.3.2-.4.1-.1.1-.1.2a2.9 2.9 0 0 0 0 .3c0 .4-.1.6-.2.8v.3a.5.5 0 0 1 .1.4l-.2.2c-.1-.1-.2.1-.3.2a.7.7 0 0 0-.1.6v.5c0-.2.1-.1.2 0a1.2 1.2 0 0 1 .3.7l.5-.2a1.4 1.4 0 0 1 0-.6c0-.3.2-.4.3-.3a1.9 1.9 0 0 1 .3.7l-.2.7c.2.3.2.4.4.4v.5l-.5.5a.7.7 0 0 0 0 .3v.3H3v.8c-.2-.1-.2 0-.2.4v.3c0 .1-.1.4-.1.3l-.3-.3c-.1-.1-.2 0-.3.2v2.1c.1 0 .2.2.2.5s.1.6.3.6l.3.2a.6.6 0 0 1 0 .3 2.7 2.7 0 0 0-.1.8 3.2 3.2 0 0 1-.1 1h-.3c-.1 0-.2-.1-.2-.4-.1 0-.1-.2-.1-.4l-.2.3h-.5c-.2-.1-.4.2-.6.4l.4.4v.8c0 .7 0 .7-.3.9s-.1.1-.1.3v.5c.2 0 .2.1.4-.2.1.4.1.6.3.5s.3 0 .4.1.4-.2.2-.7v-.3a.5.5 0 0 1 0-.2h.1l.3.4c.1.1.1.2.1.5a1.7 1.7 0 0 1-.2 1c.2 0 .2.1.2.4s-.1.3-.1.3-.3 0-.3.5-.1.3-.1.3-.3.2-.5.1-.1.2-.1.4.1.5.3.5v-.2h.1v.2h-.2a1.3 1.3 0 0 1 0 .3l-.5.5-.2-.2a.6.6 0 0 1 0-.4 1 1 0 0 0 0-.6A13.8 13.8 0 0 0 .5 80c-.2.4-.2.4-.1.7a1.4 1.4 0 0 1 .2.7.6.6 0 0 1-.2.5H.3a.8.8 0 0 0 0 .5l.2.3c.2.2.2.4 0 .8v.3c.1 0 .1.1.1.3s0 .3-.1.3v-.3H.4v.3H.3v1.1a1.1 1.1 0 0 1-.1.7A6 6 0 0 1 .1 88a3 3 0 0 0 .1 1.1 5.2 5.2 0 0 0-.1 2v.2c.1.3.2.4.3.1A9.3 9.3 0 0 0 .8 90c0-.3.2-.1.3-.1v-.6c0-.2.1-.3.2-.1h.1v.3a3.6 3.6 0 0 0 .5 1.5 2.8 2.8 0 0 1 .2.9l-.3 1a1.3 1.3 0 0 0 0 .2l.2.9a2.9 2.9 0 0 1-.1 1.1 1.6 1.6 0 0 0 0 .3 15.8 15.8 0 0 0 .1 1.7 2.6 2.6 0 0 1 0 .5v1.5h.1c.3 0 .3-.1.4-.7h.2c.1.1.2-.1.3 0a.7.7 0 0 1 .3.4.5.5 0 0 1 0 .2h-.4c-.2-.4-.5-.3-.7-.1l.3.4c.2.2.3.4.5.4v.5l-.2-.3c-.1-.2-.3-.4-.5-.4v.4l.2.7H3l.8-.3a.2.2 0 0 1-.1-.2h.7c0 .1 0 .2-.1.2h-.4c0 .2.1.3.6.3a1.1 1.1 0 0 1 .6.2h.5c-.1-.2.2-.4.4-.6h.6a1.4 1.4 0 0 1 .1.4l.5.2H8c-.1.2.1.4.1.6s-.1.2.1.2h.6l.2-.2a1.4 1.4 0 0 1 0-.8c.1-.2-.2-.3-.7-.3H7.2c.1-.2.1-.3.5-.4h.1s-.1.1 0 .1h.4c.3 0 .4-.1.4-.2h.7l1.4.2h.5a1.6 1.6 0 0 1 .9.1h.2c.1.2.1.2-.1.2a2.7 2.7 0 0 1-1.3 0h-.2a6.2 6.2 0 0 1 2.1.3l.6.2a2.6 2.6 0 0 1 1.2.4h.4l.5-.3c-.1-.1-.3-.1-.2-.2l.2-.4h.3c.1 0 .1.2.4.1l1.5-.3h.7l-.4.2-1.2.3h1.1c.3.1.4.2.2.4h-.7l-.6-.5c-.2.1-.3.2-.2.3s0 .2.2.3H18a.9.9 0 0 0 .6.1l.4-.6c.1-.2.1-.3.1-.5s.1-.2.1-.3h1c.1-.2.2-.2.5-.2h-1.6l.4.2h.6l1.1-.2.3-.3h.8l-.3.2v.1h.7c.2-.1.5 0 .5.1s-.1.2-.4.3H22l-.3.2c-.1.1 0 .2.2.1h1.3a1.3 1.3 0 0 0 .9-.1l.3.2v-.2c.9.1 1 .1 1 .4a.9.9 0 0 1 0 .3h.6c-.1-.1-.1-.1.1-.2a7.3 7.3 0 0 1 2.2-.1h-.9c-.1-.1-.1-.2.1-.3s.7-.1.5-.3l.4-.2h.8a.4.4 0 0 0 .2.5h1.2c.2 0 .4.1.4.2s.2.1.2.2 0 .1-.2.2h-.3c-.2.1-.2.2.1.2h.7v-.6c0-.1-.1-.2 0-.2s.2-.3.1-.5h.8l.4.3c.2.1.4.3.2.4h-.6c-.1 0-.2 0-.1.1l.8.3h.8v.3h.2c.5 0 .5 0 .5.2s-.1.2-.4.2h-.9c-.1.1 0 .1.1.2h4.3l.4-.5c-.4-.2-.6-.5-.3-.7s.1-.2.1-.3H37a3.2 3.2 0 0 0-1.4-.2c-.4 0-.6-.1-.6-.2h3v.4c0 .1.6.1.6.3h1l.2.3h.9c-.2-.1-.4-.2-.2-.3s.1-.3-.3-.4-.5-.2-.4-.3 0-.1-.1-.2h1.5c.2.1.4.1.5.3a1.3 1.3 0 0 1 .1.7h.2c.2-.1.5-.1.5-.3h.5a1.5 1.5 0 0 1 0 .4c0 .1-.1.2-.4.2h.9c.4 0 .5-.2.8-.2h.5a3.5 3.5 0 0 0 1.2.4c.2.1.5 0 .5-.1a3.3 3.3 0 0 0 0-.5H44c-.5 0-.7-.2-.4-.4a2.2 2.2 0 0 1 .9-.3l.5.2h.3l-.2-.2h.5c.3.2.5.4.3.7h.6c.4-.1.6-.2.6-.5H47c-.2-.1 0-.2.1-.3h.5c0 .1 0 .3-.1.4s.2.2.4.3h.1c-.2-.1-.2-.3 0-.4s.4-.2.3-.4h.3c.6-.1.6-.1.8.1h.1l-.5.3a.5.5 0 0 0-.2.3l.3.2h4.4v-.3h-.7a3.9 3.9 0 0 1-1.8-.3c-.1 0-.1-.1-.1-.1s.5-.2.4-.4h.7l.4.2.8-.2h1.2c-.1.1-.2.1-.1.2l.4.5h.7c0 .1 0 .2-.2.2h-.5l-.8.2h-.2c.4.1.4.2 0 .3-.1.1-.3.2-.2.3s.1.4-.3.6h1.1v-.2c-.1-.1 0-.2.2-.2h.8c.3 0 .2-.1.3-.2l.2-.2h.6c.1.1.1.1 0 .2H56c-.2.1-.2.2 0 .3l.5.2H56a1.7 1.7 0 0 0-1.2.2h.6c.6-.1.7-.1.9.2l.2-.2.5-.2c.3-.1.6 0 .6.1l.2.3h.7c-.1-.2.1-.3.5-.3s.9-.1 1-.3h.7c-.3 0-.4-.1-.4-.2l.2-.4v-.2c-.2-.1-.2-.2-.2-.3h-.1c-.1-.1-.4-.2-.8-.1h-.3l-.9-.2c-.1 0-.1-.1-.1-.1h.9c.3 0 .5 0 .5-.1h.6v.1h.2c.4 0 .4 0 .5.1s.2.3.5.2h.7a.8.8 0 0 0 .7 0h.1c.4-.1.3-.3 0-.4h1.8l-1.1.2h.5c.3.1.4.2.1.3s0 .2.2.2H66c.3 0 .5.1.4.3l-.3.3h.8c0-.1 0-.2.2-.1h.4v.1h-.7c-.1.1-.1.3.3.3h-.2c.2 0 .4 0 .4-.1h.2l.2.5-.9.4h-.3l.5.2h.3c.1 0 .3-.1.3-.2v-.3c0-.1.2-.2.4-.2h.4a4.3 4.3 0 0 0 0-.6h1.3a2.4 2.4 0 0 0-1.2-.2h-.2a.1.1 0 0 1 0-.1c.1-.2.1-.4-.4-.6s-.2-.2-.1-.3.1-.1 0-.1.1-.2.5-.3a.3.3 0 0 1 0-.1h1.4l.3.2.2.2h.4c0-.1.1-.2 0-.2a1.7 1.7 0 0 0-1.2-.4h2.5a1.3 1.3 0 0 0 1 0h1.4l.3-.2h2.9v.3l.3-.2h.7a1.7 1.7 0 0 0 .9.3h.3c.1.2.5.2.9.3v-.2c0-.1 0-.1.2-.1h.3a.1.1 0 0 1 0 .1.4.4 0 0 1-.4.2l.4.2h.6a.6.6 0 0 0 0-.4c-.1-.2.3-.2.4-.3h1.5l-.4.2h.6c.3 0 .4 0 .4.2s-.1.1.1.2.3.3.2.5l.4-.2c0-.2.1-.3.2-.4a.8.8 0 0 1 .6-.3h.3c.2-.1.3-.2.2-.3h.8v.1l.6.2a1.3 1.3 0 0 1 .9.5h-.1l-.6-.2a.7.7 0 0 0 .6.2l-.6.5h1.6l.2-.3h.6c.5.1.8.3.6.5s.2.2.4.3H93a2 2 0 0 0 1.3.4l.2.2h.7a4.9 4.9 0 0 0 1.3.3h.8l.4-.2-.2-.3h.7v.2c0 .1 0 .1.2.2h.5a2.3 2.3 0 0 0 0-.4h1.1v-.2c0-.1-.1-.3.2-.4s.1-.1.1-.2-.1-.3-.4-.4l.6-.7h.6V47a1.4 1.4 0 0 0 .1-.5 4.2 4.2 0 0 0 0-1.2v-6.1h.1v-2.1c.1.1.2 0 .3-.3a1.8 1.8 0 0 0-.2-1.5h-.1v-2h.2a9.1 9.1 0 0 1 0-1.8.9.9 0 0 0-.1-.4v-.6a3 3 0 0 0 0-.4v-3.3a.6.6 0 0 0 .1-.4c0-.1 0-.2-.1-.2h-.1v-1.1c.1.1.2 0 .2-.2v-.5a1.2 1.2 0 0 0-.1-.7l-.2-.2v.2-5.5l.2.3h.1a.9.9 0 0 0 0-.3c-.1-.3-.1-.6-.3-.6V17h.1c.1-.2.2-.1.3 0s.1.2.2 0a1 1 0 0 0 0-.6 10.2 10.2 0 0 1-.2-1.6l-.3-.3v-.3c.1-.1.1-.1.2.1v.7a.4.4 0 0 0 .2-.4 4.9 4.9 0 0 1 .3-1.9zM87.7 2.1h.3l-.2.2h-.3c-.1-.2 0-.2.2-.2zM2.3 21.6c-.1.3-.2.5-.3.4a.8.8 0 0 1-.2-.6 3.6 3.6 0 0 1 0-.5c0-.2.1-.2.2-.1l.3.5a3.1 3.1 0 0 1 0 .3zm.5.8c0 .1-.1-.1-.1-.3a2.5 2.5 0 0 1 0-.3h.2a1.9 1.9 0 0 1 0 .3zm-.4 49.5h-.1a.3.3 0 0 1-.1-.3h.1c.1.1.1.2.1.3zm-2 12.6h.1zm2.1-6.7a.6.6 0 0 1-.1-.4l.2.2v.3zm-.1 9.8zm.1 3.4zm-.2-8.9zm-.1 13.4zm.1 1.9a1 1 0 0 1 0-.3h.1l.4.4c-.3.2-.4.1-.5-.1zm22.1 4.1zm1.9-.6h-.2c-.1 0 0-.1.1-.1h.1zm9.8.2zm-.3.4zm-1.2-.1zm24.2-.2h.2c.2.1.5.1.5.3h-.2a.6.6 0 0 1-.5-.2zm-.3.6h.5c.1 0 .1.1.1.1a.5.5 0 0 1 0 .1h1c.2.2.2.2-.4.4s-.5 0-.5-.1v-.2h-.5c-.1 0-.2-.1-.1-.1zm7.5-.8h-.7l-.2-.2.4-.4.6.3v.5zM3 86.9zM101.4 3a.8.8 0 0 1 0 .2h-.2v-.3c.1-.1.2-.1.2.1zm-19.6-.9c.2-.2.4-.2.8 0l-.6.3h-.5zM79.7 2l.3.2-.2.3h-.6V2zm-6-.6h.2c.1.1-.1.2-.2.1zm-1.2.8a2.5 2.5 0 0 1 1.3-.2h.7l.2.2-.2.2H72zm-5.2-.5h1.5c.3.1.8-.1 1.1.1s-.1.3-.2.4h.9v.1h-2.8c-.4-.2-.8-.3-.8-.5zm-1-.4zm-3.6.6h.9l-1.3.1zm-.9.5zm-.2-.9zm-.4.5h-.4zm-1.6 0h.3l.2.3h-.6c-.4 0-.3-.2 0-.2zm-1.8-.5c0-.1 0-.1.2-.1h-.1c.3 0 .4.1.3.1h-.6zm-7 .6h.1l.2.2h-.8c-.2-.1.1-.2.4-.2zM48 1.4h.5v.2h-.3l-.5-.2v-.1zM44.2 1h.6c.2.1.2.2 0 .2l-.8.2-.4-.2s.3-.2.6-.2zm-.5 1zm-3.5-1c.2 0 .4.1.3.2h-.4c-.2 0-.2-.1-.2-.2zm-2.3.5h.1c.1.1 0 .1-.1.1zm-3-.4zm9.9 1.2c-.5-.1-.6-.1-.3-.2s.3-.2.1-.4h1.3l.6.4h.9c0 .1-.1.2-.4.2h-2.2zm-17.9.1zm-1-.5zm-.7-.6zm-7.8.3zm-2.6-.3h.3l.5.3c.1.1 0 .1-.2.2s-.7 0-.7-.1zm-1 1zm-4.1-.7l.5-.2c.4 0 .5.1.5.2s-.1.2-.4.2h-.6zm-.8.5h1.6a.4.4 0 0 0 0 .2H8.3s.1-.2.5-.2zm-6 45.3H3v.3zm-.6 17.2a1.2 1.2 0 0 1-.1-.3 1.5 1.5 0 0 1-.1-.6c0-.2.1-.3.1-.4s.4.1.6.6a.7.7 0 0 0 0 .3c-.1.6-.3.6-.5.4zm.7-.3h-.2V64H3v.3zm0 15.6V81l-.2-.7a3.2 3.2 0 0 1 0-.5H3zM2.9 73H3a.6.6 0 0 1 0 .4h-.1a1.2 1.2 0 0 1 0-.3zm-.1 23.2zm.1-.7a.4.4 0 0 1 0-.1v.3zm.1 1.7v.2a.5.5 0 0 1 0-.2zm27.8 3.5zm12.5 0zm7.1 1.1h-.2c.2-.1.3-.1.2 0zm-5-1.1h-.3l-.7-.2h1zm9.7.1zm1.4 0v-.2h.1v.2s-.1 0-.1.1zm.7 1.5h-.1c.2 0 .3.1.2.1zm.1-1.2zm.3-.5zm22.4 0zm9.2.4zm4.3.9h-.2v-.1h.2zm.7.3zm.5-.5h.9a.8.8 0 0 1-1 0zm.9.6h-.3c-.3-.1-.3-.2-.3-.3h.3l.4.2zm2.6 0c-.3 0-.4-.1-.3-.2h.4l.3.2zm1.1-.2h-.1c-.1 0-.1-.1.1-.1zM20.5 2.1zm4.7-.8zM1.9 73.1zm-.1-6.3zm-.1 32.4zM.4 83.8zm16.3 17.6zM2.2 99.3zm14.5 2.1zM.2 84.5zm.3-4.6zm1.7-34.1zm51.4 55.7v.1-.1zm-15.6-.4zm-.6-.4z"
         id="path8" />
      <path
         d="M87.8 102.2c-.4 0-.4-.2-.6-.3h-.3c-.1 0-.1.1-.1.1l.5.2h.5l.2-.2zm-85.4-78zm50.7 78.6zm.5-1.2zm29.2-.5zm-14.6 0zm16 .9zm-1.1.2l.2-.2c.1-.1 0-.2-.2-.3l-.3-.6-.7.2.3.3.4.2-.2.3-.7.4c-.1 0 0 .1.1.2h.3l1 .2c.2 0 .2.1.1.2h.1c.5 0 .5 0 .5.1s-.1.2.1.3l.9.6c.2-.2.5-.4.5-.6h.4c.1 0 .1 0 0 0a1 1 0 0 0 0-.2h-.8c-.2 0-.4-.1-.3-.2s.2-.2.4-.2h.9c-.8-.2-.8-.5-1.3-.6l-.3-.2-1.1.2zm2.5 1.3zm-.8.9zm-43-2.4zM1.7 31.7h-.1c-.1 0-.2-.2-.2-.4a1.6 1.6 0 0 0-.1-.6h-.1a.8.8 0 0 0 0 .3 2.6 2.6 0 0 1 .1.6L1 32a3.1 3.1 0 0 0-.2 1.1.7.7 0 0 0 .2.6c.1.1.2-.1.2-.2a1.1 1.1 0 0 0 0-.5c0-.2 0-.4.1-.4h.6c.2-.1.3.1.5.4s.2 0 .2-.2-.1-.7-.2-.7-.5-.6-.7-.4zm1 4a1.4 1.4 0 0 0 0-.3v-.2h-.2a1.3 1.3 0 0 0-.9-.5h-.1c-.2-.1-.3-.1-.3.2a3.5 3.5 0 0 1-.3 1 .4.4 0 0 0 0 .2H1l.2-.2.2-.6c.1.1.3.3.4.2h.3a.4.4 0 0 1 0 .4c.2-.3.3-.2.4.2zm-.8 24.8c0-.2.1-.3.2-.3h.2a.2.2 0 0 0 0-.3.3.3 0 0 1 0-.3 1.3 1.3 0 0 0 .1-.6.8.8 0 0 0-.2-.5l-.2-.3c0 .6 0 .7-.2.7h-.2c.2.4 0 .9.1 1.3s0 .3-.2.4h.1c.2.3.2.3.3-.1zm-.4.1v.7-.7zM.7 28.1a1.8 1.8 0 0 1 .1.4c0 .3.1.5.2.5h.1a1.7 1.7 0 0 0 .1-.6c0-.2.1-.4.2-.4 0-.3.1-.6-.1-.7l-.3-.4c-.1-.2-.2-.1-.2.1v.6c0-.1 0-.2.1-.2s.1.1 0 .2H.7a.5.5 0 0 0 0 .5zM22.5.9zm0 .2zm.2.2c0 .1.2.2.5.3h.3l.2-.2-.5-.4c-.1-.1-.2-.2 0-.3h-.4c-.1.1-.1.2-.4.3a.3.3 0 0 1 .3.3zm.1-.7zM20 101.2zm.3.5c.4 0 .5 0 .6-.2s0-.1 0-.1h-1c-.2.2-.1.3.4.3zM1.1 9.2zm-.1.1c.1.3.2.4.4.3v-.1a1.1 1.1 0 0 0 0-1.1l-.2-.2c-.1.2-.1.7-.3.9v.2zm24.4 92.9zm-.4 0c-.1-.1-.3-.2-.6-.2h-.3a1.8 1.8 0 0 0 1.2.4c.2-.1.1-.2.1-.3zm-4.7-101l.2-.3a2 2 0 0 0-1.2.1 1.3 1.3 0 0 0 .9.2zM5 1.4h.3c.3-.2-.1-.5-.7-.5h-.2l.5.5zm81 .2zm-1.6-.2h-.3a.1.1 0 0 0 0 .1h2a.7.7 0 0 0-.6-.2zm3 101.7l-.3-.2-.3.2c-.2.1-.1.2 0 .3h.5c.2-.1.3-.2.1-.3zm-76.2-2.4zm57.1.5a1.1 1.1 0 0 0 1.1.1c.3-.1.3-.2.3-.3h-1.4zm-66.4-64H2a1.3 1.3 0 0 0 0-.6c0-.2-.2-.3-.2-.2a.8.8 0 0 0-.1.4.6.6 0 0 0 .2.5zm4.4 64.4h-.2c0 .1.2.2.4.3h.6c-.1-.1-.3-.2-.8-.3zm95.2-71.4h.1V30a2.7 2.7 0 0 0-.2-1.1 5.7 5.7 0 0 0 .1 1.3zm0-20.7a.7.7 0 0 0 0 .3 1 1 0 0 0 .3.6h.1c0-.5-.1-.8-.2-.9zM2.2 60.9l-.2.4c.1.5.2.5.4.3a.7.7 0 0 0 0-.6c0-.1-.1-.2-.2-.1zM82 101.4h.1-.1zM13.9.9h.2c.2-.1.1-.2-.2-.2h-.7zM2.2 28.3a.7.7 0 0 0 0-.1c-.1-.2-.2-.4-.4-.4s-.2.2-.3.3h-.1a1.5 1.5 0 0 1 .8.2zm-.4 38.5zm-.3-.8zm-.1.1v.8a.9.9 0 0 0 .2.5c.1.1.2 0 .2-.3v-.3a1.3 1.3 0 0 1-.3-.7zm.8-22.5h.1c.1 0 .1-.1.1-.2v-.9a3.5 3.5 0 0 0-.2 1.1zm-.9-30.4c-.1-.3-.2-.3-.3.1a.7.7 0 0 0 0 .3c.1.2.2.4.4.1s.1-.1.2 0l.3.3c0 .1.1.3.1.3l.2-.2c.1-.1 0-.3-.1-.4H2c0-.2.1-.3.2-.4s.2-.2.2-.4a1 1 0 0 0-.2-.7l-.3-.3a5.7 5.7 0 0 0-.4 1.7zM.5 77.4h.2c.1 0 .1-.1.1-.3v-.7a1.2 1.2 0 0 1-.1.5.9.9 0 0 0-.2.5zm72.2 23.3zm-71.2-90v-.3a.5.5 0 0 1 .1-.4h.1c0-.1 0-.2-.1-.2h-.2a2.6 2.6 0 0 0 .1.9zm-.3 9.1zm.2-.2h.1v-.2c-.2-.2-.3 0-.3.5s.1-.3.2-.3zm-.2.3v.2zM33.4.7c-.1 0-.1.1-.1.1zm-.8-.1h-.3c-.1 0-.2.1-.1.1h.3zM1.9 45.3v.2a.4.4 0 0 0 .1.3c.1.1.2 0 .2-.1v-.4c-.2-.1-.2-.1-.3 0zm.3.5zm68 55.8H70l.2.2h.4c0-.2-.2-.2-.4-.2zm30.8.3v.1zM21.7 1.2zm.8-.3zm-.8.3c0-.2.3-.2.7-.3h-.8c-.2 0-.1.1.1.3zm-.8-.4zm47.8 101.5zm2.6-.1zm-.9.2h.2l.6-.2h-.8zm-20.6.1c-.1 0-.2.1-.1.2h.1zM.8 61.4h.1c.1-.1.2-.3 0-.6v.4c-.2.1-.2.2-.1.2zm47.5 41.2zM4.7 2.3h.4v-.1h-.4zm-2 40.2v.6h.1v-.8zm99-37a.6.6 0 0 0 0 .3h.1a.5.5 0 0 0 0-.4zm-22.1 96.2c-.1-.1-.1 0 0 0zM28 102zM1.1 9.1z"
         id="path10" />
      <path
         d="M1.1 9.1v-.5H.9a.7.7 0 0 0 0 .2zM.9 44.5H1c0-.1 0-.2-.1-.2zM88 .2zM32.6 102.3zm-12.4-.1v.1h.3a.3.3 0 0 0 0-.2zm.3.2zm51.6-.5v.1h.4v-.1zM1.7 99.8h.1l.2-.2-.2-.4a.3.3 0 0 1 0 .2.2.2 0 0 0-.1.4zm0-.6zM22.3 1.3v-.2h-.1zm.2-.2zm7.2 100.4zm-19.4 0zM2.2 69.4v-.3c0-.1 0-.2-.1-.1v.3zm.2 10h-.1v.8zm-.1-3.8a1.7 1.7 0 0 0 0-.3h-.2c.1 0 .1.2.1.3zm.2-18.3c0-.1-.1-.2-.1 0a1.2 1.2 0 0 0 0 .3 1.2 1.2 0 0 0 .1-.3zM94.2 1.8zM2.7 41.5v-.2c0-.1-.1-.1-.2 0a.4.4 0 0 0 0 .2zm98.6-7.2h.1v-.8a1.6 1.6 0 0 0-.1.7zm.2-.8zm-61.8 69.4zM1 11.4a.7.7 0 0 0 0 .3c0 .2.1.2.2.1v-.3c-.1-.1-.2-.2-.2-.1zm.1.4zM40 102.4a.2.2 0 0 0 0-.1zM6.2.7zm.8 0zM1.5 24.6v-.2zm.2-13.5v-.2h-.2v.3c.1.1.2.1.2-.1zm-.2-.2zm13.9 90.9zm.1.1zM1.8 49.1c-.1 0-.1 0 0 0zm.2-4.4zM2 7.9zm52.2-6.4zm22.6-.1zm11.1 100zm0 0zM5 1.8zm96.8 6.6a.9.9 0 0 0 0-.1zM.8 49.1V49l-.1.1h.1zm1.9-9.9c-.1.1-.1.1 0 0zm73.1 61.7zm-1.3 2.1zM3 36.1c0-.1 0-.1-.1 0H3zm39.3 66.4a.1.1 0 0 1 0 .1c0 .1 0 .1.1.1h-.1a.2.2 0 0 1 0-.2zM1 9.7h.1zm19.8 92.8zm-.3-.1zM1.2 42.3zM22.7.6zm25.7 101.7zm-29 .1c-.1-.1-.1 0 0 0zM1.3 3.5v-.2zm72.8 97.4zM22 2h-.1.1zm-1.5.1zM2.7 43.2zm.1 7.1zm17-48.5s-.2 0 0 0zm0-.1zM2.2 38.9zm.1 28.4h-.1a.4.4 0 0 0-.1.4v.5l.2-.3a.8.8 0 0 0 0-.6zm96-65.6c-.1-.1-.1 0 0 0zM2.2 7.1v.1-.1zm0 28.8zm0 63.4zM1.9 73c.1 0 .1 0 0 0zm0 26.7zm22.5 2.1v-.1.1zm0 0zM1.8 33.7v-.2.2zm-.1 30.2v.1-.1zM1.5 2.6v.1-.1zm0 66.6v-.1zm69.8 33.1zm-70-86.1v-.1.1zM1.2 29zm79.6 73.4h.1v-.1l-.1.1zM11.6.6zM1.2 11.9c-.1 0-.1.1 0 0zm0 11.5c-.1 0-.1.1 0 .2zm30.4 79.1h-.1.1zm7.1.2zM.9 60.7zm0 0zm65.8 42.2zm3 0zm-.1 0zm-16.3 0zM68.8 2.1h-.4c-.1 0-.1.1-.1.1h.4zm-35.5 0zm0-.1c-.1.1 0 .1.1.1s.1-.1-.1-.1zM2.5 63.9h-.1v.5l.2-.2a1.2 1.2 0 0 0-.1-.3zm-.4-43zm57.5 81.2z"
         id="path12" />
    </g>
  </g>
  <g
     id="SvgjsG6786"
     featurekey="symbol1"
     fill="#40413f"
     transform="matrix(1.0544962882995605,0,0,1.0544962882995605,182.27518127776588,76.33689083993171)">
    <g
       id="g29">
      <polygon
         points="47.614,87.043 22.573,67.948 19.121,36.882 47.813,47.166  "
         id="polygon17" />
      <polyline
         points="48.895,87.043 77.948,70.752 81.727,38.559 49.094,47.166 48.895,87.043  "
         id="polyline19" />
      <polygon
         points="79.221,23.932 87.747,15.855 57.238,12.957 47.812,24.677 63.385,27.229 64.002,26.506  "
         id="polygon21" />
      <polygon
         points="79.221,25.212 64.002,27.786 63.385,28.508 49.094,45.245 81.727,36.639 97.416,22.134  "
         id="polygon23" />
      <polygon
         points="9.227,15.8 13.779,23.816 28.623,27.376 29.145,27.826 47.812,24.677 39.176,13.238  "
         id="polygon25" />
      <polygon
         points="29.145,29.106 28.623,28.656 13.779,25.097 2.584,22.412 19.121,34.962 47.813,45.245  "
         id="polygon27" />
    </g>
  </g>
  <g
     id="SvgjsG6787"
     featurekey="text1"
     fill="#4e4c4b"
     transform="matrix(5.417117595672607,0,0,5.417117595672607,135.21668450543828,164.50595912095412)">
    <path
       d="M4.28 14.24 l1.72 0 l-0.84 -6.66 l-0.04 0 z M6.34 16.92 l-2.4 0 l-0.4 3.08 l-3.58 0 l2.56 -14.74 l5.24 0 l2.56 14.74 l-3.58 0 z M11.12 20 l0 -14.74 l3.52 0 l0 11.92 l3.62 0 l0 2.82 l-7.14 0 z M19.24 20 l0 -14.74 l7.18 0 l0 2.82 l-3.66 0 l0 2.98 l3.36 0 l0 2.74 l-3.36 0 l0 3.38 l3.88 0 l0 2.82 l-7.4 0 z M31.939999999999998 10.64 l1.14 -5.38 l3.62 0 l-2.2 7.04 l2.38 7.7 l-3.72 0 l-1.26 -5.78 l-0.04 0 l-1.22 5.78 l-3.72 0 l2.38 -7.72 l-2.18 -7.02 l3.62 0 l1.16 5.38 l0.04 0 z"
       id="path32" />
  </g>
  <g
     id="SvgjsG6788"
     featurekey="text2"
     fill="#4e4c4b"
     transform="matrix(6.765900611877441,0,0,6.765900611877441,129.3166438217127,248.7645571492285)">
    <path
       d="M4.36 13.620000000000001 l0 3.78 l0.88 0 c0.42 0 0.72 -0.1 0.9 -0.32 c0.24 -0.32 0.24 -0.84 0.24 -1.24 l0 -0.64 c0 -0.5 -0.08 -0.88 -0.22 -1.18 c-0.14 -0.26 -0.44 -0.4 -0.9 -0.4 l-0.9 0 z M0.84 20 l0 -14.74 l5.1 0 c0.96 0 2.18 0.08 2.96 0.8 c0.72 0.72 0.82 1.82 0.82 2.76 c0 1.02 -0.16 1.82 -0.46 2.36 c-0.3 0.56 -0.88 0.92 -1.7 1.1 l0 0.04 c0.86 0.1 1.5 0.46 1.88 1.04 c0.38 0.62 0.56 1.42 0.56 2.4 c0 1.52 -0.28 2.6 -0.86 3.24 c-0.58 0.66 -1.5 1 -2.8 1 l-5.5 0 z M5.12 7.880000000000001 l-0.76 0 l0 3.3 l0.74 0 c0.46 0 0.78 -0.12 0.92 -0.34 s0.22 -0.58 0.22 -1.06 l0 -0.52 c0 -0.5 -0.06 -0.84 -0.2 -1.06 c-0.16 -0.22 -0.46 -0.32 -0.92 -0.32 z M15.440000000000001 5.0600000000000005 c0.86 0 1.62 0.14 2.32 0.4 s1.2 0.84 1.52 1.74 c0.62 1.76 0.72 3.9 0.72 5.68 c0 0.86 -0.02 1.82 -0.08 2.88 c-0.06 1.04 -0.26 1.96 -0.64 2.76 c-0.36 0.76 -0.9 1.22 -1.64 1.4 s-1.46 0.26 -2.2 0.26 s-1.48 -0.08 -2.22 -0.26 c-0.72 -0.18 -1.26 -0.64 -1.62 -1.4 c-0.38 -0.8 -0.58 -1.72 -0.64 -2.76 c-0.06 -1.06 -0.08 -2.02 -0.08 -2.88 c0 -1.78 0.08 -3.92 0.72 -5.68 c0.32 -0.9 0.82 -1.48 1.52 -1.74 s1.46 -0.4 2.32 -0.4 z M15.440000000000001 17.62 c0.46 0 0.74 -0.18 0.8 -0.56 c0.08 -0.38 0.12 -0.74 0.12 -1.1 c0 -2.32 0.08 -4.68 0 -7.02 c-0.02 -0.86 -0.34 -1.3 -0.92 -1.3 c-0.6 0 -0.9 0.44 -0.92 1.3 c-0.08 2.34 0 4.7 0 7.02 c0 0.36 0.04 0.72 0.1 1.1 s0.34 0.56 0.82 0.56 z M25.46 10.64 l1.14 -5.38 l3.62 0 l-2.2 7.04 l2.38 7.7 l-3.72 0 l-1.26 -5.78 l-0.04 0 l-1.22 5.78 l-3.72 0 l2.38 -7.72 l-2.18 -7.02 l3.62 0 l1.16 5.38 l0.04 0 z"
       id="path35" />
  </g>
</svg>
