<?xml version="1.0" encoding="UTF-8" standalone="no"?>
<svg
   xmlns:dc="http://purl.org/dc/elements/1.1/"
   xmlns:cc="http://creativecommons.org/ns#"
   xmlns:rdf="http://www.w3.org/1999/02/22-rdf-syntax-ns#"
   xmlns:svg="http://www.w3.org/2000/svg"
   xmlns="http://www.w3.org/2000/svg"
   xmlns:sodipodi="http://sodipodi.sourceforge.net/DTD/sodipodi-0.dtd"
   xmlns:inkscape="http://www.inkscape.org/namespaces/inkscape"
   width="330"
   height="507"
   version="1.1"
   id="svg30"
   sodipodi:docname="logo_tag.svg"
   inkscape:version="0.92.4 (5da689c313, 2019-01-14)">
  <metadata
     id="metadata34">
    <rdf:RDF>
      <cc:Work
         rdf:about="">
        <dc:format>image/svg+xml</dc:format>
        <dc:type
           rdf:resource="http://purl.org/dc/dcmitype/StillImage" />
        <dc:title></dc:title>
      </cc:Work>
    </rdf:RDF>
  </metadata>
  <sodipodi:namedview
     pagecolor="#ffffff"
     bordercolor="#666666"
     borderopacity="1"
     objecttolerance="10"
     gridtolerance="10"
     guidetolerance="10"
     inkscape:pageopacity="0"
     inkscape:pageshadow="2"
     inkscape:window-width="640"
     inkscape:window-height="480"
     id="namedview32"
     showgrid="false"
     inkscape:zoom="0.46548323"
     inkscape:cx="165"
     inkscape:cy="253.5"
     inkscape:window-x="0"
     inkscape:window-y="27"
     inkscape:window-maximized="0"
     inkscape:current-layer="svg30" />
  <defs
     id="SvgjsDefs7336" />
  <g
     id="SvgjsG7337"
     featurekey="root"
     fill="#4e4b4b" />
  <g
     id="SvgjsG7338"
     featurekey="container1"
     fill="#f0e8c0"
     transform="matrix(9.844862937927246,0,0,9.844862937927246,0,-0.09839455053970196)">
    <title
       id="title4">assets</title>
    <path
       d="M378,170.77l10.67,8.65c1.19,1,3.23.28,3.23-1.08V131.91c0-1.95-1.95-3.52-4.35-3.52H362.73c-2.4,0-4.35,1.58-4.35,3.52v46.43c0,1.37,2,2,3.23,1.08l10.67-8.65A4.74,4.74,0,0,1,378,170.77Z"
       transform="translate(-358.38 -128.38)"
       id="path6" />
  </g>
  <g
     id="SvgjsG7339"
     featurekey="symbol1"
     fill="#40413f"
     transform="matrix(1.0544962882995605,0,0,1.0544962882995605,112.27518127776588,89.33689083993171)">
    <g
       id="g21">
      <polygon
         points="47.614,87.043 22.573,67.948 19.121,36.882 47.813,47.166  "
         id="polygon9" />
      <polyline
         points="48.895,87.043 77.948,70.752 81.727,38.559 49.094,47.166 48.895,87.043  "
         id="polyline11" />
      <polygon
         points="79.221,23.932 87.747,15.855 57.238,12.957 47.812,24.677 63.385,27.229 64.002,26.506  "
         id="polygon13" />
      <polygon
         points="79.221,25.212 64.002,27.786 63.385,28.508 49.094,45.245 81.727,36.639 97.416,22.134  "
         id="polygon15" />
      <polygon
         points="9.227,15.8 13.779,23.816 28.623,27.376 29.145,27.826 47.812,24.677 39.176,13.238  "
         id="polygon17" />
      <polygon
         points="29.145,29.106 28.623,28.656 13.779,25.097 2.584,22.412 19.121,34.962 47.813,45.245  "
         id="polygon19" />
    </g>
  </g>
  <g
     id="SvgjsG7340"
     featurekey="text1"
     fill="#4e4c4b"
     transform="matrix(5.417117595672607,0,0,5.417117595672607,65.21668450543827,177.50595912095412)">
    <path
       d="M4.28 14.24 l1.72 0 l-0.84 -6.66 l-0.04 0 z M6.34 16.92 l-2.4 0 l-0.4 3.08 l-3.58 0 l2.56 -14.74 l5.24 0 l2.56 14.74 l-3.58 0 z M11.12 20 l0 -14.74 l3.52 0 l0 11.92 l3.62 0 l0 2.82 l-7.14 0 z M19.24 20 l0 -14.74 l7.18 0 l0 2.82 l-3.66 0 l0 2.98 l3.36 0 l0 2.74 l-3.36 0 l0 3.38 l3.88 0 l0 2.82 l-7.4 0 z M31.939999999999998 10.64 l1.14 -5.38 l3.62 0 l-2.2 7.04 l2.38 7.7 l-3.72 0 l-1.26 -5.78 l-0.04 0 l-1.22 5.78 l-3.72 0 l2.38 -7.72 l-2.18 -7.02 l3.62 0 l1.16 5.38 l0.04 0 z"
       id="path24" />
  </g>
  <g
     id="SvgjsG7341"
     featurekey="text2"
     fill="#4e4c4b"
     transform="matrix(6.765900611877441,0,0,6.765900611877441,59.3166438217127,261.7645571492285)">
    <path
       d="M4.36 13.620000000000001 l0 3.78 l0.88 0 c0.42 0 0.72 -0.1 0.9 -0.32 c0.24 -0.32 0.24 -0.84 0.24 -1.24 l0 -0.64 c0 -0.5 -0.08 -0.88 -0.22 -1.18 c-0.14 -0.26 -0.44 -0.4 -0.9 -0.4 l-0.9 0 z M0.84 20 l0 -14.74 l5.1 0 c0.96 0 2.18 0.08 2.96 0.8 c0.72 0.72 0.82 1.82 0.82 2.76 c0 1.02 -0.16 1.82 -0.46 2.36 c-0.3 0.56 -0.88 0.92 -1.7 1.1 l0 0.04 c0.86 0.1 1.5 0.46 1.88 1.04 c0.38 0.62 0.56 1.42 0.56 2.4 c0 1.52 -0.28 2.6 -0.86 3.24 c-0.58 0.66 -1.5 1 -2.8 1 l-5.5 0 z M5.12 7.880000000000001 l-0.76 0 l0 3.3 l0.74 0 c0.46 0 0.78 -0.12 0.92 -0.34 s0.22 -0.58 0.22 -1.06 l0 -0.52 c0 -0.5 -0.06 -0.84 -0.2 -1.06 c-0.16 -0.22 -0.46 -0.32 -0.92 -0.32 z M15.440000000000001 5.0600000000000005 c0.86 0 1.62 0.14 2.32 0.4 s1.2 0.84 1.52 1.74 c0.62 1.76 0.72 3.9 0.72 5.68 c0 0.86 -0.02 1.82 -0.08 2.88 c-0.06 1.04 -0.26 1.96 -0.64 2.76 c-0.36 0.76 -0.9 1.22 -1.64 1.4 s-1.46 0.26 -2.2 0.26 s-1.48 -0.08 -2.22 -0.26 c-0.72 -0.18 -1.26 -0.64 -1.62 -1.4 c-0.38 -0.8 -0.58 -1.72 -0.64 -2.76 c-0.06 -1.06 -0.08 -2.02 -0.08 -2.88 c0 -1.78 0.08 -3.92 0.72 -5.68 c0.32 -0.9 0.82 -1.48 1.52 -1.74 s1.46 -0.4 2.32 -0.4 z M15.440000000000001 17.62 c0.46 0 0.74 -0.18 0.8 -0.56 c0.08 -0.38 0.12 -0.74 0.12 -1.1 c0 -2.32 0.08 -4.68 0 -7.02 c-0.02 -0.86 -0.34 -1.3 -0.92 -1.3 c-0.6 0 -0.9 0.44 -0.92 1.3 c-0.08 2.34 0 4.7 0 7.02 c0 0.36 0.04 0.72 0.1 1.1 s0.34 0.56 0.82 0.56 z M25.46 10.64 l1.14 -5.38 l3.62 0 l-2.2 7.04 l2.38 7.7 l-3.72 0 l-1.26 -5.78 l-0.04 0 l-1.22 5.78 l-3.72 0 l2.38 -7.72 l-2.18 -7.02 l3.62 0 l1.16 5.38 l0.04 0 z"
       id="path27" />
  </g>
</svg>
